#N canvas 600 1163 882 943 12;
#X obj 17 19 netreceive -u 1232;
#X obj 483 50 loadbang;
#X obj 483 74 tgl 15 0 empty empty empty 17 7 0 10 -262144 -1 -1 1
1;
#X obj 483 142 metro 166;
#X obj 517 166 + 1;
#X obj 557 40 r bpm;
#X floatatom 557 116 5 0 0 0 - - -;
#X obj 27 47 print received;
#X floatatom 483 190 10 0 0 0 - - -;
#X obj 483 166 f;
#X obj 17 902 dac~;
#X msg 789 52 \; pd dsp 1;
#X obj 789 26 loadbang;
#X obj 483 213 s tick;
#X obj 17 260 soundfiler;
#X msg 17 231 read -resize \$1 storage;
#X obj 17 307 table storage;
#X obj 17 284 s size;
#X obj 110 596 r size;
#X obj 42 437 r tick;
#X obj 42 685 *;
#X floatatom 42 709 5 0 0 0 - - -;
#X obj 42 787 tabplay~ storage;
#X obj 42 581 mod 16;
#X obj 110 619 / 16;
#X obj 557 64 expr 60000 / $f1 / 2;
#X obj 110 643 t f f;
#X obj 166 692 / 44100;
#X floatatom 166 716 5 0 0 0 - - -;
#X obj 166 789 s ticklength;
#X obj 566 88 r ticklength;
#X obj 166 739 * 1000;
#X obj 91 206 s divisions;
#X obj 162 595 r divisions;
#X text 106 179 loopfile divisions;
#X obj 99 557 r divisions;
#X obj 42 545 f;
#X obj 42 744 list append;
#X obj 42 461 list prepend;
#X obj 123 436 tgl 15 0 empty empty empty 17 7 0 10 -262144 -1 -1 0
1;
#X obj 42 485 route 1;
#X msg 42 509 bang;
#X obj 88 508 list split 1;
#X text 143 434 sticky;
#X obj 580 798 r tick;
#X obj 580 873 dac~;
#X obj 17 181 unpack s 16;
#X obj 432 50 r play;
#X obj 483 118 change;
#X obj 483 94 t f f;
#X obj 561 141 sel 1;
#X msg 561 165 0;
#X obj 123 404 r sticky;
#X msg 68 103 \; pd quit 1 \;;
#X obj 207 374 loadbang;
#X msg 207 398 0;
#X msg 580 825 1 \, 0 0 10;
#X obj 580 849 vline~;
#X text 562 768 po sync click;
#X obj 81 825 r volume;
#X obj 81 849 / 4;
#X obj 17 73 route loop quit;
#X obj 260 119 list split 1;
#X obj 260 212 s;
#X obj 260 182 list;
#X obj 260 144 t b l;
#X text 138 72 bpm play volume;
#X obj 42 877 *~ 0.5;
#X text 498 6 clock;
#X text 253 94 send all destinations;
#X text 31 157 load a loop;
#X text 42 365 loop player;
#X connect 0 0 7 0;
#X connect 0 0 61 0;
#X connect 1 0 2 0;
#X connect 2 0 49 0;
#X connect 3 0 9 0;
#X connect 4 0 9 1;
#X connect 5 0 25 0;
#X connect 6 0 3 1;
#X connect 8 0 13 0;
#X connect 9 0 4 0;
#X connect 9 0 8 0;
#X connect 12 0 11 0;
#X connect 14 0 17 0;
#X connect 15 0 14 0;
#X connect 18 0 24 0;
#X connect 19 0 38 0;
#X connect 20 0 21 0;
#X connect 21 0 37 0;
#X connect 22 0 67 0;
#X connect 23 0 20 0;
#X connect 24 0 26 0;
#X connect 25 0 6 0;
#X connect 26 0 20 1;
#X connect 26 1 27 0;
#X connect 26 1 37 1;
#X connect 27 0 28 0;
#X connect 28 0 31 0;
#X connect 30 0 6 0;
#X connect 31 0 29 0;
#X connect 33 0 24 1;
#X connect 35 0 23 1;
#X connect 36 0 23 0;
#X connect 37 0 22 0;
#X connect 38 0 40 0;
#X connect 39 0 38 1;
#X connect 40 0 41 0;
#X connect 40 1 42 0;
#X connect 41 0 36 0;
#X connect 42 1 36 0;
#X connect 44 0 56 0;
#X connect 46 0 15 0;
#X connect 46 1 32 0;
#X connect 47 0 2 0;
#X connect 48 0 3 0;
#X connect 49 0 48 0;
#X connect 49 1 50 0;
#X connect 50 0 51 0;
#X connect 51 0 9 1;
#X connect 52 0 39 0;
#X connect 54 0 55 0;
#X connect 55 0 38 1;
#X connect 56 0 57 0;
#X connect 57 0 45 0;
#X connect 59 0 60 0;
#X connect 60 0 67 1;
#X connect 61 0 46 0;
#X connect 61 1 53 0;
#X connect 61 2 62 0;
#X connect 62 0 65 0;
#X connect 62 1 64 1;
#X connect 64 0 63 0;
#X connect 65 0 64 0;
#X connect 65 1 63 1;
#X connect 67 0 10 1;
