#N canvas 623 98 720 943 12;
#X obj 17 19 netreceive -u 1232;
#X obj 487 21 loadbang;
#X obj 487 45 tgl 15 0 empty empty empty 17 7 0 10 -262144 -1 -1 1
1;
#X obj 487 113 metro 166;
#X obj 521 137 + 1;
#X obj 17 97 s bpm;
#X obj 561 11 r bpm;
#X floatatom 561 87 5 0 0 0 - - -;
#X obj 27 47 print received;
#X floatatom 487 161 10 0 0 0 - - -;
#X obj 487 137 f;
#X obj 16 779 dac~;
#X msg 345 46 \; pd dsp 1;
#X obj 345 20 loadbang;
#X obj 487 184 s tick;
#X obj 60 208 soundfiler;
#X msg 60 179 read -resize \$1 storage;
#X obj 60 255 table storage;
#X obj 60 232 s size;
#X obj 109 553 r size;
#X obj 41 394 r tick;
#X obj 41 642 *;
#X floatatom 41 666 5 0 0 0 - - -;
#X obj 41 744 tabplay~ storage;
#X obj 41 538 mod 16;
#X obj 109 576 / 16;
#X obj 561 35 expr 60000 / $f1 / 2;
#X obj 109 600 t f f;
#X obj 165 649 / 44100;
#X floatatom 165 673 5 0 0 0 - - -;
#X obj 165 746 s ticklength;
#X obj 570 59 r ticklength;
#X obj 165 696 * 1000;
#X obj 134 154 s divisions;
#X obj 161 552 r divisions;
#X text 149 127 loopfile divisions;
#X obj 98 514 r divisions;
#X obj 41 502 f;
#X obj 41 701 list append;
#X obj 41 418 list prepend;
#X obj 122 393 tgl 15 0 empty empty empty 17 7 0 10 -262144 -1 -1 0
1;
#X obj 41 442 route 1;
#X msg 41 466 bang;
#X obj 87 465 list split 1;
#X text 142 391 sticky;
#N canvas 0 50 450 250 (subpatch) 0;
#X array po-sync-click 10969 float 2;
#X coords 0 1 10969 -1 64 32 1 0 0;
#X restore 361 830 graph;
#X obj 363 785 soundfiler;
#X msg 363 761 read -resize po-sync-signal.wav po-sync-click;
#X obj 363 737 loadbang;
#X obj 288 872 tabplay~ po-sync-click;
#X obj 288 821 r tick;
#X msg 288 845 bang;
#X obj 288 896 dac~;
#X obj 60 129 unpack s 16;
#X obj 17 73 route bpm loop play;
#X obj 103 98 s play;
#X obj 436 21 r play;
#X obj 487 89 change;
#X obj 487 65 t f f;
#X obj 565 112 sel 1;
#X msg 565 136 0;
#X connect 0 0 8 0;
#X connect 0 0 54 0;
#X connect 1 0 2 0;
#X connect 2 0 58 0;
#X connect 3 0 10 0;
#X connect 4 0 10 1;
#X connect 6 0 26 0;
#X connect 7 0 3 1;
#X connect 9 0 14 0;
#X connect 10 0 4 0;
#X connect 10 0 9 0;
#X connect 13 0 12 0;
#X connect 15 0 18 0;
#X connect 16 0 15 0;
#X connect 19 0 25 0;
#X connect 20 0 39 0;
#X connect 21 0 22 0;
#X connect 22 0 38 0;
#X connect 23 0 11 1;
#X connect 24 0 21 0;
#X connect 25 0 27 0;
#X connect 26 0 7 0;
#X connect 27 0 21 1;
#X connect 27 1 28 0;
#X connect 27 1 38 1;
#X connect 28 0 29 0;
#X connect 29 0 32 0;
#X connect 31 0 7 0;
#X connect 32 0 30 0;
#X connect 34 0 25 1;
#X connect 36 0 24 1;
#X connect 37 0 24 0;
#X connect 38 0 23 0;
#X connect 39 0 41 0;
#X connect 40 0 39 1;
#X connect 41 0 42 0;
#X connect 41 1 43 0;
#X connect 42 0 37 0;
#X connect 43 1 37 0;
#X connect 47 0 46 0;
#X connect 48 0 47 0;
#X connect 49 0 52 0;
#X connect 50 0 51 0;
#X connect 51 0 49 0;
#X connect 53 0 16 0;
#X connect 53 1 33 0;
#X connect 54 0 5 0;
#X connect 54 1 53 0;
#X connect 54 2 55 0;
#X connect 56 0 2 0;
#X connect 57 0 3 0;
#X connect 58 0 57 0;
#X connect 58 1 59 0;
#X connect 59 0 60 0;
#X connect 60 0 10 1;
