#N canvas 625 1159 667 960 12;
#X obj 17 19 netreceive -u 1232;
#X obj 430 41 loadbang;
#X obj 430 65 tgl 15 0 empty empty empty 17 7 0 10 -262144 -1 -1 1
1;
#X obj 430 133 metro 166;
#X obj 464 157 + 1;
#X obj 504 31 r bpm;
#X floatatom 504 107 5 0 0 0 - - -;
#X obj 27 47 print received;
#X floatatom 430 181 10 0 0 0 - - -;
#X obj 430 157 f;
#X msg 260 45 \; pd dsp 1;
#X obj 260 19 loadbang;
#X obj 504 55 expr 60000 / $f1 / 2;
#X obj 515 489 dac~;
#X obj 379 41 r play;
#X obj 430 109 change;
#X obj 430 85 t f f;
#X obj 508 132 sel 1;
#X msg 508 156 0;
#X msg 38 113 \; pd quit 1 \;;
#X msg 515 441 1 \, 0 0 10;
#X obj 515 465 vline~;
#X text 497 275 po sync click;
#X obj 166 119 list split 1;
#X obj 166 212 s;
#X obj 166 182 list;
#X obj 166 144 t b l;
#X text 445 7 clock;
#X text 167 96 send all destinations;
#X text 145 48 bpm play;
#X obj 17 167 list split 1;
#X obj 17 279 s;
#X obj 18 429 looper 0;
#X obj 430 204 s global/tick;
#X obj 513 79 r global/ticklength;
#X obj 17 251 list;
#X obj 17 223 t b a;
#X msg 17 195 symbol channel/\$1;
#X obj 18 453 looper 1;
#X obj 18 477 looper 2;
#X obj 18 501 looper 3;
#X obj 18 525 looper 4;
#X obj 18 549 looper 5;
#X obj 18 573 looper 6;
#X obj 18 597 looper 7;
#X obj 166 272 r reset;
#X obj 166 376 s global/reset;
#X obj 166 296 t b b;
#X obj 17 73 route channel quit;
#X obj 515 305 r global/tick;
#X obj 333 290 r play;
#X msg 333 314 \; pd dsp \$1;
#X obj 515 362 / 1;
#X obj 515 386 int;
#X obj 515 410 change;
#X obj 533 330 r sync-div;
#X msg 198 321 \; play 0 \; sync-div 1 \;;
#X connect 0 0 7 0;
#X connect 0 0 48 0;
#X connect 1 0 2 0;
#X connect 2 0 16 0;
#X connect 3 0 9 0;
#X connect 4 0 9 1;
#X connect 5 0 12 0;
#X connect 6 0 3 1;
#X connect 8 0 33 0;
#X connect 9 0 4 0;
#X connect 9 0 8 0;
#X connect 11 0 10 0;
#X connect 12 0 6 0;
#X connect 14 0 2 0;
#X connect 15 0 3 0;
#X connect 16 0 15 0;
#X connect 16 1 17 0;
#X connect 17 0 18 0;
#X connect 18 0 9 1;
#X connect 20 0 21 0;
#X connect 21 0 13 0;
#X connect 23 0 26 0;
#X connect 23 1 25 1;
#X connect 25 0 24 0;
#X connect 26 0 25 0;
#X connect 26 1 24 1;
#X connect 30 0 37 0;
#X connect 30 1 35 1;
#X connect 34 0 6 0;
#X connect 35 0 31 0;
#X connect 36 0 35 0;
#X connect 36 1 31 1;
#X connect 37 0 36 0;
#X connect 45 0 47 0;
#X connect 47 0 46 0;
#X connect 47 1 56 0;
#X connect 48 0 30 0;
#X connect 48 1 19 0;
#X connect 48 2 23 0;
#X connect 49 0 52 0;
#X connect 50 0 51 0;
#X connect 52 0 53 0;
#X connect 53 0 54 0;
#X connect 54 0 20 0;
#X connect 55 0 52 1;
