#N canvas 1302 119 597 960 12;
#X obj 15 64 route loop;
#X obj 258 110 list split 1;
#X obj 258 243 s;
#X obj 258 163 list;
#X obj 258 135 t b l;
#X text 245 83 send all destinations;
#X obj 43 666 *;
#X floatatom 43 690 5 0 0 0 - - - 0;
#X obj 43 525 mod 16;
#X obj 111 610 / 16;
#X obj 111 634 t f f;
#X obj 317 671 / 44100;
#X floatatom 317 695 5 0 0 0 - - - 0;
#X obj 317 718 * 1000;
#X obj 43 489 f;
#X obj 43 725 list append;
#X obj 43 405 list prepend;
#X obj 124 380 tgl 15 0 empty empty empty 17 7 0 10 #fcfcfc #000000 #000000 0 1;
#X obj 43 429 route 1;
#X msg 43 453 bang;
#X obj 89 452 list split 1;
#X text 144 378 sticky;
#X obj 138 318 loadbang;
#X msg 138 342 0;
#X obj 125 580 t b f;
#N canvas 1 53 450 328 calculate-bpm 0;
#X obj 14 14 inlet;
#X obj 14 38 / 44100;
#X obj 14 62 / 0.111111;
#X text 102 61 magic seconds-per-beat at 135 bpm;
#X obj 14 86 log 2;
#X obj 14 185 pow;
#X msg 14 158 2 \$1;
#X obj 14 110 + 0.5;
#X obj 14 134 int;
#X obj 14 259 / 2;
#X obj 27 210 r divider;
#X obj 27 234 t b f;
#X obj 14 283 outlet;
#X connect 0 0 1 0;
#X connect 1 0 2 0;
#X connect 2 0 4 0;
#X connect 4 0 7 0;
#X connect 5 0 9 0;
#X connect 6 0 5 0;
#X connect 7 0 8 0;
#X connect 8 0 6 0;
#X connect 9 0 12 0;
#X connect 10 0 11 0;
#X connect 11 0 9 0;
#X connect 11 1 9 1;
#X restore 253 316 pd calculate-bpm;
#X text 251 264 automatically calculate divisions pow 2;
#X obj 15 137 soundfiler;
#X text 39 239 basic loop player;
#X obj 15 16 r channel/\$1;
#X obj 15 198 table \$0/storage;
#X obj 43 768 tabplay~ \$0/storage;
#X obj 43 261 r global/tick;
#X obj 317 768 s global/ticklength;
#X text 331 742 TODO: every loop resets the BPM atm;
#X obj 125 556 r \$0/divisions;
#X obj 100 501 r \$0/divisions;
#X obj 253 340 s \$0/divisions;
#X obj 15 161 s \$0/size;
#X obj 253 292 r \$0/size;
#X obj 111 530 r \$0/size;
#X obj 124 288 r \$0/sticky;
#X obj 293 163 list prepend \$0;
#X obj 68 833 r \$0/volume;
#X msg 293 187 \$1/\$2;
#X obj 293 211 symbol;
#X obj 434 24 r global/reset;
#X obj 15 88 list prepend \$0;
#X msg 15 112 read -resize \$2 \$1/storage;
#X obj 15 40 list trim;
#X obj 434 48 list prepend \$0;
#N canvas 107 1226 450 300 pan 0;
#X obj 24 18 inlet~;
#X obj 25 246 outlet~;
#X obj 322 244 outlet~;
#X obj 338 18 inlet;
#X obj 72 104 *~ 1;
#X obj 25 104 *~ 0;
#X obj 338 42 expr 1 - $f1;
#X connect 0 0 4 0;
#X connect 0 0 5 0;
#X connect 3 0 4 1;
#X connect 3 0 6 0;
#X connect 4 0 2 0;
#X connect 5 0 1 0;
#X connect 6 0 5 1;
#X restore 43 883 pd pan;
#X obj 101 859 r \$0/pan;
#X obj 43 858 *~ 0;
#X msg 434 72 \; \$1/storage resize 0 \; \$1/volume 0 \;;
#X obj 42 913 outlet~;
#X obj 101 913 outlet~;
#X obj 20 298 r \$0/tick;
#X connect 0 0 47 0;
#X connect 0 1 1 0;
#X connect 1 0 4 0;
#X connect 1 1 3 1;
#X connect 3 0 2 0;
#X connect 4 0 3 0;
#X connect 4 1 42 0;
#X connect 6 0 7 0;
#X connect 7 0 15 0;
#X connect 8 0 6 0;
#X connect 9 0 10 0;
#X connect 10 0 6 1;
#X connect 10 1 11 0;
#X connect 10 1 15 1;
#X connect 11 0 12 0;
#X connect 12 0 13 0;
#X connect 13 0 33 0;
#X connect 14 0 8 0;
#X connect 15 0 31 0;
#X connect 16 0 18 0;
#X connect 17 0 16 1;
#X connect 18 0 19 0;
#X connect 18 1 20 0;
#X connect 19 0 14 0;
#X connect 20 1 14 0;
#X connect 22 0 23 0;
#X connect 23 0 17 0;
#X connect 24 0 9 0;
#X connect 24 1 9 1;
#X connect 25 0 37 0;
#X connect 27 0 38 0;
#X connect 29 0 49 0;
#X connect 31 0 53 0;
#X connect 32 0 16 0;
#X connect 35 0 24 0;
#X connect 36 0 8 1;
#X connect 39 0 25 0;
#X connect 40 0 9 0;
#X connect 41 0 17 0;
#X connect 42 0 44 0;
#X connect 43 0 53 1;
#X connect 44 0 45 0;
#X connect 45 0 2 1;
#X connect 46 0 50 0;
#X connect 47 0 48 0;
#X connect 48 0 27 0;
#X connect 49 0 0 0;
#X connect 50 0 54 0;
#X connect 51 0 55 0;
#X connect 51 1 56 0;
#X connect 52 0 51 1;
#X connect 53 0 51 0;
#X connect 57 0 8 0;
